<?xml version="1.0" encoding="UTF-8" standalone="no"?>
<!DOCTYPE svg PUBLIC "-//W3C//DTD SVG 1.1//EN"
 "http://www.w3.org/Graphics/SVG/1.1/DTD/svg11.dtd">
<!-- Generated by graphviz version 14.1.2 (20260124.0452)
 -->
<!-- Pages: 1 -->
<svg width="1152pt" height="168pt"
 viewBox="0.00 0.00 1152.00 168.00" xmlns="http://www.w3.org/2000/svg" xmlns:xlink="http://www.w3.org/1999/xlink">
<g id="graph0" class="graph" transform="scale(0.741551 0.741551) rotate(0) translate(4 222)">
<polygon fill="white" stroke="none" points="-4,4 -4,-222 1549.5,-222 1549.5,4 -4,4"/>
<!-- A -->
<g id="node1" class="node">
<title>A</title>
<path fill="lightgray" stroke="black" d="M160,-129C160,-129 12,-129 12,-129 6,-129 0,-123 0,-117 0,-117 0,-100 0,-100 0,-94 6,-88 12,-88 12,-88 160,-88 160,-88 166,-88 172,-94 172,-100 172,-100 172,-117 172,-117 172,-123 166,-129 160,-129"/>
<text xml:space="preserve" text-anchor="middle" x="86" y="-111.7" font-family="Times New Roman,serif" font-size="14.00">Network Dataset</text>
<text xml:space="preserve" text-anchor="middle" x="86" y="-95.2" font-family="Times New Roman,serif" font-size="14.00">(UNSW&#45;NB15 / NSL&#45;KDD)</text>
</g>
<!-- B -->
<g id="node2" class="node">
<title>B</title>
<path fill="lightgray" stroke="black" d="M352.25,-145.5C352.25,-145.5 220,-145.5 220,-145.5 214,-145.5 208,-139.5 208,-133.5 208,-133.5 208,-83.5 208,-83.5 208,-77.5 214,-71.5 220,-71.5 220,-71.5 352.25,-71.5 352.25,-71.5 358.25,-71.5 364.25,-77.5 364.25,-83.5 364.25,-83.5 364.25,-133.5 364.25,-133.5 364.25,-139.5 358.25,-145.5 352.25,-145.5"/>
<text xml:space="preserve" text-anchor="middle" x="286.12" y="-128.2" font-family="Times New Roman,serif" font-size="14.00">Automated Preprocessing</text>
<text xml:space="preserve" text-anchor="middle" x="286.12" y="-111.7" font-family="Times New Roman,serif" font-size="14.00">• Encoding</text>
<text xml:space="preserve" text-anchor="middle" x="286.12" y="-95.2" font-family="Times New Roman,serif" font-size="14.00">• Scaling</text>
<text xml:space="preserve" text-anchor="middle" x="286.12" y="-78.7" font-family="Times New Roman,serif" font-size="14.00">• Cleaning</text>
</g>
<!-- A&#45;&gt;B -->
<g id="edge1" class="edge">
<title>A&#45;&gt;B</title>
<path fill="none" stroke="black" d="M172.46,-108.5C180.34,-108.5 188.34,-108.5 196.25,-108.5"/>
<polygon fill="black" stroke="black" points="196.24,-112 206.24,-108.5 196.24,-105 196.24,-112"/>
</g>
<!-- C -->
<g id="node3" class="node">
<title>C</title>
<path fill="lightgray" stroke="black" d="M523.5,-129C523.5,-129 412.25,-129 412.25,-129 406.25,-129 400.25,-123 400.25,-117 400.25,-117 400.25,-100 400.25,-100 400.25,-94 406.25,-88 412.25,-88 412.25,-88 523.5,-88 523.5,-88 529.5,-88 535.5,-94 535.5,-100 535.5,-100 535.5,-117 535.5,-117 535.5,-123 529.5,-129 523.5,-129"/>
<text xml:space="preserve" text-anchor="middle" x="467.88" y="-111.7" font-family="Times New Roman,serif" font-size="14.00">Automated Balancing</text>
<text xml:space="preserve" text-anchor="middle" x="467.88" y="-95.2" font-family="Times New Roman,serif" font-size="14.00">SMOTE</text>
</g>
<!-- B&#45;&gt;C -->
<g id="edge2" class="edge">
<title>B&#45;&gt;C</title>
<path fill="none" stroke="black" d="M364.66,-108.5C372.51,-108.5 380.49,-108.5 388.35,-108.5"/>
<polygon fill="black" stroke="black" points="388.25,-112 398.25,-108.5 388.25,-105 388.25,-112"/>
</g>
<!-- D1 -->
<g id="node4" class="node">
<title>D1</title>
<path fill="lightgray" stroke="black" d="M693.25,-218C693.25,-218 583.5,-218 583.5,-218 577.5,-218 571.5,-212 571.5,-206 571.5,-206 571.5,-189 571.5,-189 571.5,-183 577.5,-177 583.5,-177 583.5,-177 693.25,-177 693.25,-177 699.25,-177 705.25,-183 705.25,-189 705.25,-189 705.25,-206 705.25,-206 705.25,-212 699.25,-218 693.25,-218"/>
<text xml:space="preserve" text-anchor="middle" x="638.38" y="-200.7" font-family="Times New Roman,serif" font-size="14.00">Feature Selection</text>
<text xml:space="preserve" text-anchor="middle" x="638.38" y="-184.2" font-family="Times New Roman,serif" font-size="14.00">(Mutual Information)</text>
</g>
<!-- C&#45;&gt;D1 -->
<g id="edge3" class="edge">
<title>C&#45;&gt;D1</title>
<path fill="none" stroke="black" d="M502.54,-129.49C522.31,-141.49 547.97,-156.49 571.5,-168.5 573.59,-169.57 575.72,-170.63 577.89,-171.69"/>
<polygon fill="black" stroke="black" points="576.26,-174.79 586.79,-175.93 579.27,-168.47 576.26,-174.79"/>
</g>
<!-- D2 -->
<g id="node5" class="node">
<title>D2</title>
<path fill="lightgray" stroke="black" d="M676.38,-159C676.38,-159 600.38,-159 600.38,-159 594.38,-159 588.38,-153 588.38,-147 588.38,-147 588.38,-130 588.38,-130 588.38,-124 594.38,-118 600.38,-118 600.38,-118 676.38,-118 676.38,-118 682.38,-118 688.38,-124 688.38,-130 688.38,-130 688.38,-147 688.38,-147 688.38,-153 682.38,-159 676.38,-159"/>
<text xml:space="preserve" text-anchor="middle" x="638.38" y="-141.7" font-family="Times New Roman,serif" font-size="14.00">Latent Features</text>
<text xml:space="preserve" text-anchor="middle" x="638.38" y="-125.2" font-family="Times New Roman,serif" font-size="14.00">(PCA)</text>
</g>
<!-- C&#45;&gt;D2 -->
<g id="edge4" class="edge">
<title>C&#45;&gt;D2</title>
<path fill="none" stroke="black" d="M535.95,-120.44C549.51,-122.86 563.68,-125.38 576.98,-127.75"/>
<polygon fill="black" stroke="black" points="575.97,-131.12 586.43,-129.43 577.2,-124.23 575.97,-131.12"/>
</g>
<!-- D3 -->
<g id="node6" class="node">
<title>D3</title>
<path fill="lightgray" stroke="black" d="M676.38,-100C676.38,-100 600.38,-100 600.38,-100 594.38,-100 588.38,-94 588.38,-88 588.38,-88 588.38,-71 588.38,-71 588.38,-65 594.38,-59 600.38,-59 600.38,-59 676.38,-59 676.38,-59 682.38,-59 688.38,-65 688.38,-71 688.38,-71 688.38,-88 688.38,-88 688.38,-94 682.38,-100 676.38,-100"/>
<text xml:space="preserve" text-anchor="middle" x="638.38" y="-82.7" font-family="Times New Roman,serif" font-size="14.00">Latent Features</text>
<text xml:space="preserve" text-anchor="middle" x="638.38" y="-66.2" font-family="Times New Roman,serif" font-size="14.00">(Autoencoder)</text>
</g>
<!-- C&#45;&gt;D3 -->
<g id="edge5" class="edge">
<title>C&#45;&gt;D3</title>
<path fill="none" stroke="black" d="M535.95,-96.96C549.37,-94.65 563.39,-92.23 576.58,-89.96"/>
<polygon fill="black" stroke="black" points="577.17,-93.41 586.43,-88.27 575.98,-86.51 577.17,-93.41"/>
</g>
<!-- D4 -->
<g id="node7" class="node">
<title>D4</title>
<path fill="lightgray" stroke="black" d="M676.38,-41C676.38,-41 600.38,-41 600.38,-41 594.38,-41 588.38,-35 588.38,-29 588.38,-29 588.38,-12 588.38,-12 588.38,-6 594.38,0 600.38,0 600.38,0 676.38,0 676.38,0 682.38,0 688.38,-6 688.38,-12 688.38,-12 688.38,-29 688.38,-29 688.38,-35 682.38,-41 676.38,-41"/>
<text xml:space="preserve" text-anchor="middle" x="638.38" y="-23.7" font-family="Times New Roman,serif" font-size="14.00">Latent Features</text>
<text xml:space="preserve" text-anchor="middle" x="638.38" y="-7.2" font-family="Times New Roman,serif" font-size="14.00">(VAE)</text>
</g>
<!-- C&#45;&gt;D4 -->
<g id="edge6" class="edge">
<title>C&#45;&gt;D4</title>
<path fill="none" stroke="black" d="M504.08,-87.6C523.7,-76.21 548.7,-62.11 571.5,-50.5 574.19,-49.13 576.95,-47.75 579.76,-46.38"/>
<polygon fill="black" stroke="black" points="581.13,-49.61 588.63,-42.13 578.1,-43.3 581.13,-49.61"/>
</g>
<!-- E -->
<g id="node8" class="node">
<title>E</title>
<path fill="lightgray" stroke="black" d="M887,-129C887,-129 753.25,-129 753.25,-129 747.25,-129 741.25,-123 741.25,-117 741.25,-117 741.25,-100 741.25,-100 741.25,-94 747.25,-88 753.25,-88 753.25,-88 887,-88 887,-88 893,-88 899,-94 899,-100 899,-100 899,-117 899,-117 899,-123 893,-129 887,-129"/>
<text xml:space="preserve" text-anchor="middle" x="820.12" y="-111.7" font-family="Times New Roman,serif" font-size="14.00">AutoML Model Selection</text>
<text xml:space="preserve" text-anchor="middle" x="820.12" y="-95.2" font-family="Times New Roman,serif" font-size="14.00">(H2O AutoML)</text>
</g>
<!-- D1&#45;&gt;E -->
<g id="edge7" class="edge">
<title>D1&#45;&gt;E</title>
<path fill="none" stroke="black" d="M688.12,-176.5C693.92,-173.87 699.74,-171.16 705.25,-168.5 727.11,-157.94 750.93,-145.54 771.1,-134.76"/>
<polygon fill="black" stroke="black" points="772.5,-137.98 779.66,-130.17 769.19,-131.82 772.5,-137.98"/>
</g>
<!-- D2&#45;&gt;E -->
<g id="edge8" class="edge">
<title>D2&#45;&gt;E</title>
<path fill="none" stroke="black" d="M688.49,-130.3C701.29,-128.17 715.48,-125.8 729.66,-123.43"/>
<polygon fill="black" stroke="black" points="730.22,-126.89 739.51,-121.79 729.07,-119.98 730.22,-126.89"/>
</g>
<!-- D3&#45;&gt;E -->
<g id="edge9" class="edge">
<title>D3&#45;&gt;E</title>
<path fill="none" stroke="black" d="M688.49,-87.42C701.29,-89.49 715.48,-91.78 729.66,-94.07"/>
<polygon fill="black" stroke="black" points="729.08,-97.52 739.51,-95.66 730.19,-90.61 729.08,-97.52"/>
</g>
<!-- D4&#45;&gt;E -->
<g id="edge10" class="edge">
<title>D4&#45;&gt;E</title>
<path fill="none" stroke="black" d="M685.92,-41.39C692.43,-44.4 699.02,-47.5 705.25,-50.5 726.27,-60.63 749.24,-72.23 769,-82.38"/>
<polygon fill="black" stroke="black" points="767.18,-85.37 777.68,-86.84 770.39,-79.15 767.18,-85.37"/>
</g>
<!-- F -->
<g id="node9" class="node">
<title>F</title>
<path fill="lightgray" stroke="black" d="M1086,-129C1086,-129 947,-129 947,-129 941,-129 935,-123 935,-117 935,-117 935,-100 935,-100 935,-94 941,-88 947,-88 947,-88 1086,-88 1086,-88 1092,-88 1098,-94 1098,-100 1098,-100 1098,-117 1098,-117 1098,-123 1092,-129 1086,-129"/>
<text xml:space="preserve" text-anchor="middle" x="1016.5" y="-111.7" font-family="Times New Roman,serif" font-size="14.00">CBME Model Elimination</text>
<text xml:space="preserve" text-anchor="middle" x="1016.5" y="-95.2" font-family="Times New Roman,serif" font-size="14.00">(Checkpoints)</text>
</g>
<!-- E&#45;&gt;F -->
<g id="edge11" class="edge">
<title>E&#45;&gt;F</title>
<path fill="none" stroke="black" d="M899.34,-108.5C907.23,-108.5 915.29,-108.5 923.31,-108.5"/>
<polygon fill="black" stroke="black" points="923.07,-112 933.07,-108.5 923.07,-105 923.07,-112"/>
</g>
<!-- G -->
<g id="node10" class="node">
<title>G</title>
<path fill="lightgray" stroke="black" d="M1314.25,-126.5C1314.25,-126.5 1146,-126.5 1146,-126.5 1140,-126.5 1134,-120.5 1134,-114.5 1134,-114.5 1134,-102.5 1134,-102.5 1134,-96.5 1140,-90.5 1146,-90.5 1146,-90.5 1314.25,-90.5 1314.25,-90.5 1320.25,-90.5 1326.25,-96.5 1326.25,-102.5 1326.25,-102.5 1326.25,-114.5 1326.25,-114.5 1326.25,-120.5 1320.25,-126.5 1314.25,-126.5"/>
<text xml:space="preserve" text-anchor="middle" x="1230.12" y="-103.45" font-family="Times New Roman,serif" font-size="14.00">Final Intrusion Detection Model</text>
</g>
<!-- F&#45;&gt;G -->
<g id="edge12" class="edge">
<title>F&#45;&gt;G</title>
<path fill="none" stroke="black" d="M1098.41,-108.5C1106.26,-108.5 1114.31,-108.5 1122.36,-108.5"/>
<polygon fill="black" stroke="black" points="1122.22,-112 1132.22,-108.5 1122.22,-105 1122.22,-112"/>
</g>
<!-- H -->
<g id="node11" class="node">
<title>H</title>
<path fill="lightgray" stroke="black" d="M1533.5,-137.25C1533.5,-137.25 1374.25,-137.25 1374.25,-137.25 1368.25,-137.25 1362.25,-131.25 1362.25,-125.25 1362.25,-125.25 1362.25,-91.75 1362.25,-91.75 1362.25,-85.75 1368.25,-79.75 1374.25,-79.75 1374.25,-79.75 1533.5,-79.75 1533.5,-79.75 1539.5,-79.75 1545.5,-85.75 1545.5,-91.75 1545.5,-91.75 1545.5,-125.25 1545.5,-125.25 1545.5,-131.25 1539.5,-137.25 1533.5,-137.25"/>
<text xml:space="preserve" text-anchor="middle" x="1453.88" y="-119.95" font-family="Times New Roman,serif" font-size="14.00">Evaluation</text>
<text xml:space="preserve" text-anchor="middle" x="1453.88" y="-103.45" font-family="Times New Roman,serif" font-size="14.00">ROC • PR • Confusion Matrix</text>
<text xml:space="preserve" text-anchor="middle" x="1453.88" y="-86.95" font-family="Times New Roman,serif" font-size="14.00">Cross&#45;Dataset Validation</text>
</g>
<!-- G&#45;&gt;H -->
<g id="edge13" class="edge">
<title>G&#45;&gt;H</title>
<path fill="none" stroke="black" d="M1326.45,-108.5C1334.43,-108.5 1342.52,-108.5 1350.55,-108.5"/>
<polygon fill="black" stroke="black" points="1350.33,-112 1360.33,-108.5 1350.33,-105 1350.33,-112"/>
</g>
</g>
</svg>
